<svg xmlns="http://www.w3.org/2000/svg" width="36" height="59" viewBox="0 0 36 59">
    <path fill="#597AEE" fill-rule="evenodd" d="M6.51 28.645l2.044-1.265a13.524 13.524 0 0 0 9.66 4.03c7.456 0 13.5-5.986 13.5-13.37 0-7.385-6.044-13.37-13.5-13.37s-13.5 5.985-13.5 13.37c0 2.191.533 4.26 1.477 6.086l-1.768 1.093a2 2 0 0 0-2.425-.245L0 26.211v-8.175-.08-.129C0 7.982 8.059 0 18 0s18 7.982 18 17.827a18.03 18.03 0 0 1 0 .209V52a7 7 0 0 1-7 7H7a7 7 0 0 1-7-7V34.22l5.603-3.468a2.001 2.001 0 0 0 .906-2.107zm7.87-18.526a8.586 8.586 0 0 1 5.763-2.205c4.734 0 8.571 3.8 8.571 8.489 0 1.33-.309 2.59-.86 3.711-.14-5.74-4.882-10.351-10.711-10.351-.955 0-1.882.123-2.763.356z"/>
</svg>
